<svg width="81" height="80" viewBox="0 0 81 80" fill="none" xmlns="http://www.w3.org/2000/svg">
<path opacity="0.3" d="M80.5 40C80.5 62.0914 62.5914 80 40.5 80C18.4086 80 0.5 62.0914 0.5 40C0.5 17.9086 18.4086 0 40.5 0C62.5914 0 80.5 17.9086 80.5 40ZM11.4071 40C11.4071 56.0675 24.4325 69.0929 40.5 69.0929C56.5675 69.0929 69.5929 56.0675 69.5929 40C69.5929 23.9325 56.5675 10.9071 40.5 10.9071C24.4325 10.9071 11.4071 23.9325 11.4071 40Z" fill="#2F2E30"/>
<circle cx="40.5" cy="40" r="29" fill="black"/>
<path d="M40.9278 38.1455V38.6455L41.4278 38.6455C42.0916 38.6455 42.739 38.8513 43.281 39.2345C43.8229 39.6176 44.2327 40.1593 44.454 40.785C44.4727 40.8379 44.4808 40.894 44.4778 40.95C44.4748 41.0061 44.4608 41.061 44.4366 41.1116C44.4124 41.1622 44.3784 41.2076 44.3367 41.2451C44.295 41.2826 44.2463 41.3116 44.1933 41.3303C44.1404 41.3489 44.0844 41.357 44.0283 41.354C43.9723 41.351 43.9174 41.337 43.8667 41.3128C43.7645 41.264 43.6858 41.1765 43.6481 41.0696L43.648 41.0693C43.4856 40.6103 43.1849 40.2129 42.7873 39.9318C42.3896 39.6508 41.9146 39.4999 41.4277 39.5L40.9278 39.5002V40V43.7091V44.2091H41.4278C42.2789 44.2091 43.0952 44.5472 43.697 45.149C44.2988 45.7508 44.6369 46.5671 44.6369 47.4181C44.6369 48.2692 44.2988 49.0855 43.697 49.6873C43.0952 50.2891 42.2789 50.6272 41.4278 50.6272H40.9278V51.1272V51.5545H40.0733V51.1272V50.6272L39.5733 50.6272C38.9096 50.6272 38.2621 50.4214 37.7202 50.0382C37.1782 49.655 36.7684 49.1132 36.5471 48.4875L36.5472 48.4874L36.5422 48.4743C36.5216 48.421 36.512 48.3641 36.5138 48.307C36.5156 48.2499 36.5289 48.1938 36.5528 48.1419C36.5767 48.09 36.6107 48.0434 36.6529 48.0049L36.317 47.6366L36.6529 48.0049C36.6952 47.9664 36.7447 47.9368 36.7985 47.9177C36.8524 47.8987 36.9095 47.8907 36.9665 47.8941C37.0236 47.8975 37.0793 47.9124 37.1305 47.9377C37.1817 47.9631 37.2273 47.9985 37.2646 48.0418C37.3019 48.085 37.3301 48.1354 37.3476 48.1898L37.3499 48.1968L37.3523 48.2038C37.6768 49.1185 38.5484 49.7727 39.5733 49.7727H40.0733V49.2727V45.5636V45.0636H39.5733C38.7222 45.0636 37.906 44.7255 37.3042 44.1237C36.7024 43.5219 36.3643 42.7057 36.3643 41.8546C36.3643 41.0035 36.7024 40.1872 37.3042 39.5854C37.906 38.9836 38.7222 38.6455 39.5733 38.6455H40.0733V38.1455V37.7183H40.9278V38.1455ZM40.0733 40V39.5H39.5733C38.9488 39.5 38.35 39.7481 37.9084 40.1897C37.4668 40.6312 37.2188 41.2301 37.2188 41.8546C37.2188 42.479 37.4668 43.0779 37.9084 43.5195C38.35 43.961 38.9488 44.2091 39.5733 44.2091H40.0733V43.7091V40ZM40.9278 49.2727V49.7727H41.4278C42.0523 49.7727 42.6512 49.5246 43.0927 49.083C43.5343 48.6415 43.7824 48.0426 43.7824 47.4181C43.7824 46.7937 43.5343 46.1948 43.0927 45.7532C42.6512 45.3117 42.0523 45.0636 41.4278 45.0636H40.9278V45.5636V49.2727Z" fill="#FAFAFA" stroke="#FAFAFA"/>
<path d="M33.2057 32.5776L33.5219 32.6997C37.8707 34.3796 43.1083 34.3796 47.457 32.6979L47.7695 32.5771L48.0001 32.8202C49.8981 34.8209 51.4858 37.0947 52.7105 39.5657L52.7115 39.5676C53.9873 42.1702 54.7037 44.8132 54.5867 47.1299L54.5867 47.13C54.4723 49.3911 53.5716 51.3571 51.5218 52.8058L51.5218 52.8059C49.4129 54.2959 45.9467 55.3334 40.5354 55.3334C35.1198 55.3334 31.6397 54.314 29.5132 52.842L29.5129 52.8419C27.4494 51.4118 26.5376 49.4719 26.4101 47.2372L33.2057 32.5776ZM33.2057 32.5776L32.9752 32.826M33.2057 32.5776L32.9752 32.826M32.9752 32.826C31.1573 34.7855 29.4657 37.1896 28.251 39.6927L28.2509 39.6928M32.9752 32.826L28.2509 39.6928M28.2509 39.6928C26.9804 42.3122 26.2784 44.9431 26.4101 47.237L28.2509 39.6928ZM50.3428 26.1812C50.7832 26.3991 51.1642 26.6075 51.4775 26.7942L48.3457 31.3724L48.1141 31.711L48.401 32.0043C50.3394 33.986 52.1697 36.5162 53.4805 39.1918C54.7935 41.872 55.5679 44.6623 55.441 47.1734C55.3151 49.6636 54.3054 51.8861 52.0163 53.5034C49.7051 55.1362 46.0382 56.188 40.5364 56.188C35.0332 56.188 31.3544 55.155 29.028 53.544C26.7245 51.9488 25.6991 49.7542 25.558 47.2855C25.4157 44.795 26.1758 42.0151 27.4835 39.32C28.7889 36.6298 30.6229 34.0597 32.5812 31.9991L32.8589 31.707L32.6323 31.3736L29.5225 26.7978C29.6798 26.7051 29.8536 26.6073 30.043 26.5064L30.043 26.5064L30.0447 26.5055C30.2353 26.403 30.4408 26.2976 30.6614 26.19L30.8573 26.0945C33.1034 25.0239 36.6645 23.8093 40.5364 23.8093C44.4384 23.8093 47.9975 25.0427 50.2165 26.1199C50.2165 26.1199 50.2165 26.1199 50.2165 26.1199L50.3412 26.1804C50.3417 26.1807 50.3422 26.181 50.3428 26.1812ZM46.7245 32.059L46.8779 32.0045L46.9698 31.8702L49.7117 27.8617L50.2968 27.0062L49.2631 27.0807C46.6696 27.2674 43.6003 27.8747 40.6554 28.7273C38.6714 29.3004 36.4387 29.2192 34.3339 28.8309C33.8046 28.7328 33.279 28.616 32.758 28.4807L31.4726 28.147L32.2188 29.2456L33.9991 31.867L34.091 32.0023L34.245 32.0571C38.1692 33.4542 42.7996 33.4541 46.7245 32.059ZM32.08 26.4802L30.8004 27.0233L32.1328 27.4197C32.8897 27.6449 33.6821 27.8412 34.4877 27.9903L34.4881 27.9904C36.523 28.3652 38.6079 28.4297 40.4168 27.9057L40.4175 27.9055C42.3859 27.332 44.388 26.881 46.4122 26.5551L46.4768 25.5827C44.7353 25.0583 42.6905 24.6638 40.5354 24.6638C37.2536 24.6638 34.2063 25.5777 32.08 26.4802Z" fill="#FAFAFA" stroke="#FAFAFA"/>
</svg>
