<svg width="81" height="80" viewBox="0 0 81 80" fill="none" xmlns="http://www.w3.org/2000/svg">
<path opacity="0.3" d="M80.5 40C80.5 62.0914 62.5914 80 40.5 80C18.4086 80 0.5 62.0914 0.5 40C0.5 17.9086 18.4086 0 40.5 0C62.5914 0 80.5 17.9086 80.5 40ZM11.4071 40C11.4071 56.0675 24.4325 69.0929 40.5 69.0929C56.5675 69.0929 69.5929 56.0675 69.5929 40C69.5929 23.9325 56.5675 10.9071 40.5 10.9071C24.4325 10.9071 11.4071 23.9325 11.4071 40Z" fill="#2F2E30"/>
<circle cx="40.5" cy="40" r="29" fill="black"/>
<path d="M28.5994 50.5994L28.5992 50.5992C27.7265 49.9485 26.9259 48.9207 26.3431 47.7591C25.7602 46.5974 25.417 45.3452 25.417 44.2667V31.8667C25.417 29.5075 27.1718 26.9619 29.3915 26.1353L29.3925 26.1349L37.7087 23.0184C37.7088 23.0184 37.7089 23.0183 37.7089 23.0183C38.4624 22.7367 39.4619 22.5875 40.4837 22.5875C41.5054 22.5875 42.5049 22.7367 43.2584 23.0183C43.2585 23.0183 43.2585 23.0184 43.2586 23.0184L51.5749 26.1349L51.5758 26.1353C53.7955 26.9619 55.5503 29.5075 55.5503 31.8667V44.25C55.5503 45.3372 55.2069 46.5893 54.6244 47.7484C54.0419 48.9074 53.2414 49.9314 52.3681 50.5825L52.3679 50.5827L45.2012 55.9327L45.2012 55.9326L45.195 55.9374C43.9123 56.9265 42.2243 57.4334 40.5003 57.4334C38.7777 57.4334 37.0855 56.9271 35.7652 55.9487C35.765 55.9486 35.7649 55.9484 35.7647 55.9483L28.5994 50.5994ZM38.2422 24.4316L38.2415 24.4318L29.9249 27.5485L29.9242 27.5488C29.0966 27.8603 28.3553 28.5226 27.8244 29.2907C27.2933 30.0591 26.9337 30.9899 26.9337 31.8834V44.2667C26.9337 45.1612 27.2442 46.1893 27.7012 47.1011C28.1581 48.0127 28.7936 48.8723 29.5012 49.4007L29.5012 49.4007L36.6676 54.7504C37.7296 55.5446 39.1286 55.925 40.5024 55.925C41.8764 55.925 43.2786 55.5446 44.3481 54.7517L44.3494 54.7507L51.5161 49.4007L51.517 49.4C52.2317 48.864 52.8672 48.0051 53.3225 47.0945C53.7779 46.1838 54.0837 45.1601 54.0837 44.2667V31.8667C54.0837 30.9805 53.7232 30.0539 53.1929 29.2866C52.6624 28.519 51.9226 27.8541 51.0979 27.5339L51.098 27.5339L51.0925 27.5318L42.7758 24.4152L42.7758 24.4151L42.7667 24.4119C42.1286 24.1866 41.3005 24.0833 40.501 24.0854C39.7024 24.0876 38.8755 24.1953 38.2422 24.4316Z" fill="#FAFAFA" stroke="#FAFAFA"/>
<path d="M37.9135 41.0536L38.2671 41.4071L38.6206 41.0536L44.9039 34.7703C45.192 34.4822 45.6754 34.4822 45.9635 34.7703C46.2516 35.0583 46.2516 35.5417 45.9635 35.8298L38.7968 42.9965C38.6455 43.1478 38.4583 43.2167 38.2671 43.2167C38.0758 43.2167 37.8886 43.1478 37.7373 42.9965L35.0539 40.3131C34.7659 40.0251 34.7659 39.5417 35.0539 39.2536C35.342 38.9655 35.8254 38.9655 36.1135 39.2536L37.9135 41.0536Z" fill="#FAFAFA" stroke="#FAFAFA"/>
</svg>
